<svg xmlns="http://www.w3.org/2000/svg" xmlns:xlink="http://www.w3.org/1999/xlink" width="500" zoomAndPan="magnify" viewBox="0 0 375 374.999991" height="500" preserveAspectRatio="xMidYMid meet" version="1.0"><defs><g/><clipPath id="c2a2382583"><path d="M 123 74.710938 L 165 74.710938 L 165 118 L 123 118 Z M 123 74.710938 " clip-rule="nonzero"/></clipPath><clipPath id="6762ceff2c"><path d="M 77.101562 141 L 91 141 L 91 190 L 77.101562 190 Z M 77.101562 141 " clip-rule="nonzero"/></clipPath><clipPath id="39830f3d13"><path d="M 119 127 L 275.691406 127 L 275.691406 258 L 119 258 Z M 119 127 " clip-rule="nonzero"/></clipPath></defs><path fill="#ffffff" d="M 192.09375 297.777344 C 178.085938 297.777344 164.496094 295.03125 151.703125 289.621094 C 139.347656 284.394531 128.25 276.914062 118.722656 267.382812 C 109.195312 257.855469 101.710938 246.757812 96.484375 234.402344 C 91.074219 221.609375 88.332031 208.019531 88.332031 194.015625 C 88.332031 180.007812 91.074219 166.417969 96.484375 153.625 C 101.710938 141.269531 109.191406 130.171875 118.722656 120.644531 C 128.25 111.117188 139.347656 103.632812 151.703125 98.40625 C 164.496094 92.996094 178.085938 90.253906 192.09375 90.253906 C 206.097656 90.253906 219.6875 92.996094 232.480469 98.40625 C 244.835938 103.632812 255.9375 111.113281 265.464844 120.644531 C 274.992188 130.171875 282.472656 141.269531 287.699219 153.625 C 293.113281 166.417969 295.855469 180.007812 295.855469 194.015625 C 295.855469 211.679688 291.335938 229.125 282.789062 244.460938 C 282.578125 244.835938 282.105469 244.972656 281.730469 244.761719 C 281.355469 244.550781 281.222656 244.082031 281.429688 243.707031 C 289.851562 228.597656 294.300781 211.414062 294.300781 194.015625 C 294.300781 137.65625 248.449219 91.804688 192.09375 91.804688 C 135.734375 91.804688 89.882812 137.65625 89.882812 194.015625 C 89.882812 250.371094 135.734375 296.222656 192.09375 296.222656 C 204.695312 296.222656 216.996094 293.960938 228.65625 289.492188 C 229.054688 289.335938 229.503906 289.535156 229.660156 289.9375 C 229.8125 290.339844 229.613281 290.785156 229.210938 290.941406 C 217.371094 295.476562 204.882812 297.777344 192.09375 297.777344 Z M 192.09375 297.777344 " fill-opacity="1" fill-rule="nonzero"/><g clip-path="url(#c2a2382583)"><path fill="#ffffff" d="M 124.453125 117.132812 C 124.367188 117.132812 124.285156 117.121094 124.199219 117.09375 C 123.832031 116.964844 123.613281 116.585938 123.691406 116.207031 C 124.878906 110.371094 125.976562 106.960938 129.015625 103.355469 C 130.835938 101.195312 133.105469 99.410156 135.089844 97.90625 C 140.109375 94.097656 145.417969 90.542969 150.859375 87.339844 L 151.636719 86.882812 C 154.027344 85.484375 156.496094 84.042969 158.476562 82.128906 C 160.398438 80.265625 161.875 77.941406 162.738281 75.410156 C 162.867188 75.027344 163.265625 74.808594 163.65625 74.90625 C 164.046875 75 164.300781 75.382812 164.238281 75.78125 C 163.519531 80.371094 161.691406 84.785156 158.949219 88.546875 C 154.84375 94.1875 148.828125 98.191406 142.945312 101.675781 C 142.457031 101.964844 141.964844 102.253906 141.472656 102.539062 C 136.335938 105.558594 131.023438 108.675781 127.515625 113.402344 C 127.300781 113.695312 127.058594 114 126.8125 114.3125 C 126.183594 115.109375 125.53125 115.933594 125.148438 116.703125 C 125.015625 116.972656 124.742188 117.132812 124.453125 117.132812 Z M 130.203125 104.355469 C 128.0625 106.894531 126.972656 109.285156 126.066406 112.746094 C 126.136719 112.65625 126.207031 112.566406 126.269531 112.480469 C 129.964844 107.496094 135.417969 104.296875 140.691406 101.203125 C 141.179688 100.914062 141.667969 100.628906 142.15625 100.339844 C 147.898438 96.9375 153.753906 93.046875 157.699219 87.632812 C 159.042969 85.789062 160.152344 83.78125 161.007812 81.667969 C 160.554688 82.21875 160.070312 82.746094 159.554688 83.246094 C 157.441406 85.289062 154.890625 86.78125 152.421875 88.222656 L 151.644531 88.679688 C 146.257812 91.847656 141 95.371094 136.023438 99.144531 C 134.023438 100.660156 131.921875 102.316406 130.203125 104.355469 Z M 130.203125 104.355469 " fill-opacity="1" fill-rule="nonzero"/></g><path fill="#ffffff" d="M 118.191406 123.179688 C 117.964844 123.179688 117.742188 123.082031 117.589844 122.894531 C 117.34375 122.589844 117.359375 122.152344 117.628906 121.871094 C 121.714844 117.546875 124.449219 115.230469 128.933594 113.773438 C 131.617188 112.902344 134.488281 112.582031 136.96875 112.351562 C 143.246094 111.769531 149.628906 111.554688 155.9375 111.710938 L 156.84375 111.734375 C 159.609375 111.808594 162.46875 111.886719 165.160156 111.308594 C 167.78125 110.742188 170.261719 109.546875 172.328125 107.851562 C 172.640625 107.597656 173.09375 107.621094 173.375 107.914062 C 173.660156 108.199219 173.671875 108.65625 173.40625 108.960938 C 170.371094 112.480469 166.484375 115.261719 162.175781 117.011719 C 155.707031 119.632812 148.484375 119.855469 141.648438 119.707031 C 141.082031 119.695312 140.511719 119.679688 139.941406 119.664062 C 133.984375 119.511719 127.828125 119.355469 122.351562 121.519531 C 122.011719 121.648438 121.648438 121.78125 121.273438 121.917969 C 120.320312 122.261719 119.328125 122.621094 118.597656 123.070312 C 118.472656 123.144531 118.332031 123.179688 118.191406 123.179688 Z M 129.414062 115.25 C 126.253906 116.277344 124.066406 117.730469 121.46875 120.191406 C 121.574219 120.152344 121.683594 120.113281 121.78125 120.074219 C 127.550781 117.792969 133.871094 117.953125 139.984375 118.113281 C 140.550781 118.128906 141.117188 118.140625 141.683594 118.152344 C 148.355469 118.296875 155.386719 118.085938 161.59375 115.570312 C 163.710938 114.714844 165.714844 113.59375 167.558594 112.25 C 166.882812 112.480469 166.191406 112.675781 165.492188 112.824219 C 162.617188 113.445312 159.664062 113.363281 156.804688 113.285156 L 155.90625 113.261719 C 149.652344 113.109375 143.332031 113.324219 137.113281 113.898438 C 134.605469 114.128906 131.945312 114.425781 129.414062 115.25 Z M 129.414062 115.25 " fill-opacity="1" fill-rule="nonzero"/><g clip-path="url(#6762ceff2c)"><path fill="#ffffff" d="M 89.34375 189.042969 C 89.105469 189.042969 88.878906 188.933594 88.730469 188.742188 C 86.734375 186.144531 85.292969 183.933594 84.191406 181.785156 C 80.988281 175.527344 80 168.367188 79.457031 162.1875 C 79.316406 160.648438 79.203125 159.078125 79.089844 157.558594 C 78.71875 152.558594 78.335938 147.382812 77.179688 142.457031 C 77.09375 142.109375 77.261719 141.75 77.582031 141.585938 C 77.898438 141.425781 78.289062 141.5 78.519531 141.769531 C 83.722656 147.769531 87.113281 153.597656 88.894531 159.589844 C 90.929688 166.433594 90.785156 173.632812 90.433594 179.140625 C 90.253906 181.972656 90.167969 184.621094 90.171875 187.242188 C 90.171875 187.613281 90.15625 187.972656 90.121094 188.339844 C 90.09375 188.65625 89.871094 188.925781 89.566406 189.015625 C 89.488281 189.03125 89.417969 189.042969 89.34375 189.042969 Z M 85.574219 181.074219 C 86.371094 182.628906 87.359375 184.222656 88.621094 185.988281 C 88.640625 183.742188 88.730469 181.457031 88.882812 179.042969 C 89.226562 173.664062 89.367188 166.644531 87.40625 160.03125 C 85.921875 155.042969 83.265625 150.15625 79.308594 145.15625 C 80.027344 149.242188 80.335938 153.398438 80.636719 157.445312 C 80.75 158.957031 80.867188 160.519531 81.003906 162.050781 C 81.53125 168.082031 82.492188 175.058594 85.574219 181.074219 Z M 85.574219 181.074219 " fill-opacity="1" fill-rule="nonzero"/></g><path fill="#ffffff" d="M 90.394531 183.449219 C 90.320312 183.449219 90.25 183.4375 90.175781 183.417969 C 89.824219 183.3125 89.589844 182.976562 89.621094 182.613281 C 89.703125 181.496094 89.882812 180.292969 90.164062 178.945312 C 90.78125 175.976562 91.519531 173.609375 92.488281 171.484375 C 95.003906 165.949219 99.394531 161.558594 103.636719 157.3125 C 108.039062 152.914062 112.589844 148.359375 114.851562 142.628906 C 114.980469 142.308594 115.296875 142.113281 115.636719 142.136719 C 115.980469 142.167969 116.261719 142.414062 116.332031 142.75 C 117.6875 149.011719 115.484375 156.355469 110.285156 162.894531 C 107.378906 166.550781 103.875 169.714844 100.480469 172.78125 C 98.722656 174.367188 96.902344 176.007812 95.199219 177.695312 C 93.375 179.496094 91.980469 181.085938 91.109375 182.972656 C 91.097656 182.996094 91.085938 183.023438 91.074219 183.042969 C 90.9375 183.296875 90.671875 183.449219 90.394531 183.449219 Z M 115.152344 145.679688 C 112.59375 150.546875 108.605469 154.535156 104.734375 158.410156 C 100.589844 162.558594 96.300781 166.847656 93.898438 172.125 C 92.988281 174.128906 92.289062 176.375 91.695312 179.195312 C 92.449219 178.269531 93.28125 177.40625 94.109375 176.589844 C 95.835938 174.882812 97.667969 173.226562 99.441406 171.625 C 102.785156 168.605469 106.246094 165.484375 109.070312 161.929688 C 113.261719 156.65625 115.402344 150.871094 115.152344 145.679688 Z M 115.152344 145.679688 " fill-opacity="1" fill-rule="nonzero"/><path fill="#ffffff" d="M 92.113281 167 C 92.078125 167 92.042969 166.996094 92.007812 166.992188 C 91.652344 166.941406 91.375 166.65625 91.339844 166.296875 C 89.714844 149.441406 92.304688 132.28125 98.832031 116.679688 C 98.980469 116.328125 99.359375 116.136719 99.730469 116.222656 C 100.097656 116.3125 100.351562 116.660156 100.320312 117.039062 C 100.039062 120.691406 100.117188 124.441406 100.191406 128.070312 C 100.265625 131.820312 100.34375 135.703125 100.03125 139.523438 C 99.308594 148.339844 96.632812 156.6875 92.839844 166.503906 C 92.722656 166.804688 92.433594 167 92.113281 167 Z M 98.578125 121.585938 C 93.792969 134.695312 91.75 148.765625 92.617188 162.714844 C 95.707031 154.390625 97.859375 147.054688 98.484375 139.394531 C 98.792969 135.652344 98.710938 131.8125 98.636719 128.101562 C 98.59375 125.960938 98.550781 123.777344 98.578125 121.585938 Z M 98.578125 121.585938 " fill-opacity="1" fill-rule="nonzero"/><path fill="#ffffff" d="M 99.402344 148.074219 C 99.226562 148.074219 99.054688 148.015625 98.910156 147.902344 C 98.621094 147.667969 98.542969 147.261719 98.714844 146.933594 C 99.714844 145.054688 101.226562 143.175781 103.46875 141.027344 C 113.019531 131.859375 124.871094 125.367188 137.738281 122.261719 C 138.074219 122.179688 138.421875 122.332031 138.59375 122.628906 C 138.765625 122.929688 138.71875 123.308594 138.476562 123.558594 C 133.484375 128.710938 128.320312 134.039062 121.8125 137.539062 C 119.128906 138.984375 116.035156 140.15625 113.042969 141.285156 C 108.328125 143.070312 103.453125 144.914062 99.898438 147.894531 C 99.753906 148.015625 99.578125 148.074219 99.402344 148.074219 Z M 104.542969 142.144531 C 103.808594 142.851562 103.15625 143.523438 102.578125 144.175781 C 105.640625 142.425781 109.105469 141.113281 112.492188 139.832031 C 115.574219 138.664062 118.480469 137.566406 121.078125 136.171875 C 126.550781 133.226562 131.101562 128.882812 135.425781 124.46875 C 123.859375 127.730469 113.230469 133.804688 104.542969 142.144531 Z M 104.542969 142.144531 " fill-opacity="1" fill-rule="nonzero"/><path fill="#ffffff" d="M 103.9375 140.621094 C 103.882812 140.621094 103.828125 140.613281 103.773438 140.601562 C 103.5 140.542969 103.28125 140.34375 103.195312 140.082031 C 102.71875 138.601562 102.519531 136.925781 102.628906 135.234375 C 102.820312 132.328125 103.804688 129.59375 104.839844 127.070312 C 106.023438 124.183594 107.375 121.328125 108.683594 118.5625 C 110.140625 115.492188 111.640625 112.320312 112.902344 109.121094 C 115.238281 103.195312 116.117188 90.265625 116.125 90.136719 C 116.148438 89.746094 116.460938 89.4375 116.851562 89.414062 C 117.238281 89.390625 117.589844 89.660156 117.660156 90.046875 C 117.796875 90.769531 120.976562 107.890625 118.839844 116.316406 C 116.242188 126.546875 107.953125 136.542969 104.511719 140.359375 C 104.363281 140.527344 104.152344 140.621094 103.9375 140.621094 Z M 104.179688 135.335938 C 104.113281 136.320312 104.167969 137.300781 104.332031 138.21875 C 108.085938 133.898438 115.042969 124.976562 117.335938 115.9375 C 118.613281 110.902344 117.851562 102.289062 117.082031 96.457031 C 116.574219 100.738281 115.703125 106.25 114.347656 109.691406 C 113.066406 112.9375 111.554688 116.136719 110.089844 119.226562 C 108.789062 121.972656 107.445312 124.8125 106.277344 127.660156 C 105.292969 130.0625 104.355469 132.65625 104.179688 135.335938 Z M 104.179688 135.335938 " fill-opacity="1" fill-rule="nonzero"/><path fill="#ffffff" d="M 239.445312 286.390625 C 239.445312 286.699219 239.386719 286.996094 239.269531 287.28125 C 239.148438 287.566406 238.980469 287.820312 238.761719 288.039062 C 238.542969 288.253906 238.292969 288.421875 238.007812 288.542969 C 237.722656 288.660156 237.425781 288.71875 237.117188 288.71875 C 236.808594 288.71875 236.511719 288.660156 236.226562 288.542969 C 235.941406 288.421875 235.6875 288.253906 235.46875 288.039062 C 235.25 287.820312 235.082031 287.566406 234.964844 287.28125 C 234.847656 286.996094 234.789062 286.699219 234.789062 286.390625 C 234.789062 286.082031 234.847656 285.785156 234.964844 285.5 C 235.082031 285.214844 235.25 284.960938 235.46875 284.742188 C 235.6875 284.523438 235.941406 284.355469 236.226562 284.238281 C 236.511719 284.121094 236.808594 284.0625 237.117188 284.0625 C 237.425781 284.0625 237.722656 284.121094 238.007812 284.238281 C 238.292969 284.355469 238.542969 284.523438 238.761719 284.742188 C 238.980469 284.960938 239.148438 285.214844 239.269531 285.5 C 239.386719 285.785156 239.445312 286.082031 239.445312 286.390625 Z M 239.445312 286.390625 " fill-opacity="1" fill-rule="nonzero"/><path fill="#ffffff" d="M 254.800781 277.167969 C 254.800781 277.476562 254.742188 277.773438 254.625 278.058594 C 254.507812 278.34375 254.339844 278.597656 254.121094 278.816406 C 253.902344 279.035156 253.648438 279.203125 253.363281 279.320312 C 253.078125 279.4375 252.78125 279.496094 252.472656 279.496094 C 252.164062 279.496094 251.867188 279.4375 251.582031 279.320312 C 251.296875 279.203125 251.046875 279.035156 250.828125 278.816406 C 250.609375 278.597656 250.441406 278.34375 250.320312 278.058594 C 250.203125 277.773438 250.144531 277.476562 250.144531 277.167969 C 250.144531 276.859375 250.203125 276.5625 250.320312 276.277344 C 250.441406 275.992188 250.609375 275.738281 250.828125 275.523438 C 251.046875 275.304688 251.296875 275.136719 251.582031 275.015625 C 251.867188 274.898438 252.164062 274.839844 252.472656 274.839844 C 252.78125 274.839844 253.078125 274.898438 253.363281 275.015625 C 253.648438 275.136719 253.902344 275.304688 254.121094 275.523438 C 254.339844 275.738281 254.507812 275.992188 254.625 276.277344 C 254.742188 276.5625 254.800781 276.859375 254.800781 277.167969 Z M 254.800781 277.167969 " fill-opacity="1" fill-rule="nonzero"/><path fill="#ffffff" d="M 268.324219 265.421875 C 268.324219 265.730469 268.265625 266.027344 268.148438 266.3125 C 268.03125 266.597656 267.863281 266.847656 267.644531 267.066406 C 267.425781 267.285156 267.171875 267.453125 266.886719 267.570312 C 266.601562 267.691406 266.304688 267.75 265.996094 267.75 C 265.6875 267.75 265.390625 267.691406 265.105469 267.570312 C 264.820312 267.453125 264.566406 267.285156 264.351562 267.066406 C 264.132812 266.847656 263.964844 266.597656 263.84375 266.3125 C 263.726562 266.027344 263.667969 265.730469 263.667969 265.421875 C 263.667969 265.113281 263.726562 264.816406 263.84375 264.53125 C 263.964844 264.246094 264.132812 263.992188 264.351562 263.773438 C 264.566406 263.554688 264.820312 263.386719 265.105469 263.269531 C 265.390625 263.152344 265.6875 263.09375 265.996094 263.09375 C 266.304688 263.09375 266.601562 263.152344 266.886719 263.269531 C 267.171875 263.386719 267.425781 263.554688 267.644531 263.773438 C 267.863281 263.992188 268.03125 264.246094 268.148438 264.53125 C 268.265625 264.816406 268.324219 265.113281 268.324219 265.421875 Z M 268.324219 265.421875 " fill-opacity="1" fill-rule="nonzero"/><path fill="#ffffff" d="M 279.601562 251.503906 C 279.601562 251.8125 279.542969 252.109375 279.425781 252.394531 C 279.304688 252.679688 279.136719 252.929688 278.917969 253.148438 C 278.703125 253.367188 278.449219 253.535156 278.164062 253.652344 C 277.878906 253.773438 277.582031 253.832031 277.273438 253.832031 C 276.964844 253.832031 276.667969 253.773438 276.382812 253.652344 C 276.097656 253.535156 275.84375 253.367188 275.625 253.148438 C 275.40625 252.929688 275.238281 252.679688 275.121094 252.394531 C 275.003906 252.109375 274.945312 251.8125 274.945312 251.503906 C 274.945312 251.191406 275.003906 250.894531 275.121094 250.609375 C 275.238281 250.324219 275.40625 250.074219 275.625 249.855469 C 275.84375 249.636719 276.097656 249.46875 276.382812 249.351562 C 276.667969 249.230469 276.964844 249.171875 277.273438 249.171875 C 277.582031 249.171875 277.878906 249.230469 278.164062 249.351562 C 278.449219 249.46875 278.703125 249.636719 278.917969 249.855469 C 279.136719 250.074219 279.304688 250.324219 279.425781 250.609375 C 279.542969 250.894531 279.601562 251.191406 279.601562 251.503906 Z M 279.601562 251.503906 " fill-opacity="1" fill-rule="nonzero"/><g clip-path="url(#39830f3d13)"><path fill="#ffffff" d="M 273.015625 215.539062 C 272.8125 215.785156 272.613281 216.03125 272.421875 216.277344 C 271.066406 217.839844 269.523438 219.207031 267.972656 220.5625 C 261.601562 226.0625 253.863281 230.019531 245.375 230.667969 C 238.171875 231.21875 231.640625 229.476562 225.390625 226.5 C 225.824219 223.472656 225.859375 220.394531 225.464844 217.355469 C 225.375 216.695312 225.269531 216.03125 225.144531 215.382812 C 225.824219 215.140625 226.492188 214.859375 227.15625 214.535156 C 227.519531 214.359375 227.875 214.179688 228.234375 213.984375 C 228.367188 214.03125 228.496094 214.074219 228.625 214.117188 C 229.824219 218.960938 231.738281 222.503906 233.214844 224.769531 C 233.976562 225.933594 234.632812 226.777344 235.085938 227.34375 C 235.554688 227.890625 235.796875 228.179688 235.796875 228.179688 C 235.796875 228.179688 235.617188 227.851562 235.269531 227.21875 C 234.929688 226.585938 234.429688 225.652344 233.835938 224.417969 C 232.769531 222.167969 231.375 218.914062 230.304688 214.6875 C 234.089844 215.898438 238.023438 216.746094 241.96875 217.296875 C 249.339844 223.90625 254.105469 227.320312 254.105469 227.320312 C 254.105469 227.320312 250.789062 223.511719 244.496094 217.609375 C 244.839844 217.644531 245.183594 217.6875 245.527344 217.722656 C 251.175781 218.257812 258.183594 218.941406 263.433594 216.902344 C 263.507812 216.875 263.496094 216.777344 263.417969 216.769531 C 260.71875 216.492188 257.984375 216.921875 255.265625 217.042969 C 257.066406 215.613281 258.238281 214.039062 258.941406 212.832031 C 259.449219 211.957031 259.742188 211.238281 259.929688 210.75 C 260.101562 210.257812 260.175781 210 260.175781 210 C 260.175781 210 260.023438 210.222656 259.734375 210.648438 C 259.433594 211.066406 258.992188 211.679688 258.359375 212.417969 C 257.1875 213.769531 255.34375 215.582031 252.597656 217.058594 C 250.429688 217.019531 248.257812 216.875 246.101562 216.640625 C 243.507812 216.355469 240.347656 215.789062 237.535156 215.101562 C 242.316406 213.304688 245.714844 210.867188 247.878906 209.011719 C 249.078125 207.976562 249.921875 207.097656 250.484375 206.496094 C 251.023438 205.878906 251.304688 205.558594 251.304688 205.558594 C 251.304688 205.558594 250.972656 205.824219 250.332031 206.332031 C 249.6875 206.832031 248.730469 207.570312 247.445312 208.445312 C 244.867188 210.179688 240.941406 212.519531 235.542969 214.21875 L 235.671875 214.625 C 233.773438 214.113281 231.886719 213.535156 230.007812 212.90625 C 230.667969 212.476562 231.300781 212.007812 231.910156 211.507812 C 232.867188 210.867188 233.746094 210.207031 234.511719 209.550781 C 237.546875 206.957031 240.433594 203.210938 241.890625 199.15625 C 244.847656 199.300781 247.578125 200.007812 250.597656 201.605469 C 254.289062 203.542969 257.5625 206.136719 261.191406 208.160156 C 264.398438 209.945312 267.480469 212.148438 271.027344 213.214844 C 271.308594 213.300781 272.84375 213.527344 273.050781 213.667969 C 274.515625 213.917969 274.503906 214.546875 273.015625 215.539062 Z M 223.402344 167.210938 C 222.320312 166.425781 220.960938 166.328125 219.691406 166.722656 C 218.789062 167 217.636719 167.628906 217.082031 168.507812 C 216.921875 168.222656 216.75 167.929688 216.566406 167.621094 C 216.773438 167.621094 216.988281 167.5625 217.113281 167.390625 C 222.707031 159.898438 231.394531 169.226562 226.621094 174.871094 C 226.4375 173.617188 226.546875 172.582031 225.582031 171.515625 C 224.851562 170.703125 224.128906 170.15625 223.539062 169.203125 C 221.730469 169.851562 220.246094 169.769531 218.660156 169.207031 C 218.605469 169.183594 218.546875 169.160156 218.488281 169.136719 C 218.976562 168.691406 219.445312 168.226562 220.113281 167.933594 C 221.132812 167.488281 222.253906 167.382812 223.355469 167.382812 C 223.453125 167.382812 223.46875 167.261719 223.402344 167.210938 Z M 230.496094 170.304688 C 230.820312 170.628906 231.195312 170.875 231.566406 171.128906 C 231.546875 171.164062 231.546875 171.210938 231.597656 171.21875 C 231.636719 171.222656 231.667969 171.226562 231.707031 171.230469 C 231.914062 171.375 232.113281 171.527344 232.292969 171.703125 C 233.164062 172.542969 233.039062 173.515625 232.636719 174.527344 C 232.292969 175.382812 231.914062 176.132812 231.726562 176.980469 C 231.183594 176.863281 230.585938 176.753906 229.984375 176.613281 C 229.875 176.472656 229.6875 176.378906 229.5 176.410156 C 229.4375 176.421875 229.375 176.433594 229.308594 176.441406 C 228.449219 176.203125 227.632812 175.875 227.039062 175.363281 C 231 173.765625 229.59375 167.703125 227.253906 165.101562 C 224.394531 161.914062 218.429688 162.042969 215.914062 166.5 C 215.898438 166.484375 215.886719 166.476562 215.875 166.464844 C 215.4375 165.699219 215.070312 164.980469 215.007812 164.460938 C 214.78125 162.5625 217.816406 161.402344 219.234375 161.183594 C 217.972656 161.375 219.550781 156.636719 219.628906 156.402344 C 219.871094 155.691406 224.332031 157.011719 224.835938 157.421875 C 226.5 158.761719 227.554688 160.375 227.328125 162.550781 C 227.425781 161.613281 231.832031 162.554688 232.320312 162.734375 C 233.863281 163.292969 235.179688 164.261719 236.71875 164.816406 C 236.007812 165.894531 236.128906 166.910156 235.667969 168.015625 C 235.503906 168.417969 233.632812 171.101562 233.070312 170.710938 C 232.347656 170.210938 231.46875 169.917969 230.628906 169.917969 C 230.417969 169.914062 230.367188 170.179688 230.496094 170.304688 Z M 224.574219 212.574219 C 224.550781 212.578125 224.519531 212.589844 224.5 212.597656 C 224.34375 212.027344 224.164062 211.464844 223.976562 210.90625 C 224.773438 210.585938 225.539062 210.25 226.246094 209.878906 C 229.21875 208.34375 231.429688 206.492188 233.046875 204.859375 C 234.65625 203.210938 235.660156 201.742188 236.304688 200.75 C 236.917969 199.726562 237.207031 199.1875 237.207031 199.1875 C 237.207031 199.1875 236.835938 199.679688 236.125 200.621094 C 235.375 201.53125 234.246094 202.863281 232.554688 204.339844 C 230.859375 205.804688 228.609375 207.433594 225.707031 208.78125 C 225.023438 209.09375 224.289062 209.382812 223.539062 209.660156 C 223.210938 208.796875 222.855469 207.941406 222.460938 207.101562 C 222.476562 207.097656 222.492188 207.089844 222.507812 207.082031 C 224.753906 206.039062 226.496094 204.824219 227.816406 203.75 C 229.136719 202.667969 230.027344 201.703125 230.613281 201.046875 C 231.179688 200.375 231.457031 200.011719 231.457031 200.011719 C 231.457031 200.011719 231.113281 200.3125 230.457031 200.890625 C 229.785156 201.445312 228.785156 202.265625 227.394531 203.171875 C 225.996094 204.082031 224.152344 205.105469 221.910156 205.980469 C 221.308594 204.804688 220.632812 203.660156 219.902344 202.546875 C 221.011719 201.886719 221.945312 201.210938 222.675781 200.605469 C 223.640625 199.800781 224.308594 199.097656 224.742188 198.613281 C 225.171875 198.125 225.378906 197.859375 225.378906 197.859375 C 225.378906 197.859375 225.109375 198.0625 224.59375 198.453125 C 224.070312 198.828125 223.300781 199.386719 222.257812 200.027344 C 221.4375 200.523438 220.4375 201.078125 219.269531 201.625 C 212.585938 192.128906 201.175781 185.484375 187.308594 186.265625 C 186.5625 181.453125 184.425781 176.890625 181.429688 172.976562 C 185.585938 162.902344 196.597656 154.628906 205.550781 152.515625 C 219.753906 149.171875 228.714844 153.863281 236.960938 163.800781 C 236.910156 163.792969 236.859375 163.78125 236.808594 163.769531 C 234.917969 163.398438 233.402344 161.28125 231.589844 160.726562 C 230.613281 160.425781 229.484375 160.449219 228.648438 161.03125 C 227.5625 157.511719 226.582031 155.570312 218.96875 155.0625 C 218.714844 155.046875 218.390625 155.324219 218.371094 155.582031 C 218.160156 158.140625 217.769531 159.09375 215.753906 160.613281 C 214.613281 161.472656 213.605469 162.390625 212.546875 163.347656 C 212.128906 163.722656 212.320312 164.382812 212.644531 164.726562 C 213.617188 165.75 214.523438 166.898438 215.160156 168.164062 C 215.285156 168.40625 215.414062 168.636719 215.542969 168.859375 C 215.582031 169.117188 215.609375 169.390625 215.625 169.691406 C 215.675781 170.648438 215.621094 171.664062 215.992188 172.566406 C 216.535156 173.882812 217.558594 174.492188 218.933594 174.128906 C 219.035156 174.101562 219.007812 173.957031 218.90625 173.949219 C 217.132812 173.839844 216.9375 172.210938 216.832031 170.429688 C 217.4375 170.933594 218.167969 171.269531 219.136719 171.375 C 220.417969 171.523438 221.640625 171.171875 222.785156 170.636719 C 222.894531 171.03125 223.113281 171.421875 223.429688 171.816406 C 224.390625 173.007812 224.914062 173.695312 225.230469 175.199219 C 225.429688 176.140625 225.878906 176.578125 226.546875 176.847656 C 226.160156 176.855469 225.765625 176.832031 225.359375 176.753906 C 223.96875 176.488281 222.652344 175.761719 221.59375 174.835938 C 221.328125 174.605469 220.875 174.902344 221.082031 175.230469 C 222.644531 177.703125 226.589844 179.191406 229.261719 177.636719 C 230.199219 177.957031 231.125 178.339844 232.050781 178.703125 C 232.527344 178.886719 233.101562 178.6875 233.207031 178.136719 C 233.542969 176.359375 235 174.671875 234.554688 172.785156 C 234.414062 172.183594 234.089844 171.664062 233.667969 171.226562 C 234 171.566406 235.632812 170.335938 235.855469 170.113281 C 236.660156 169.296875 237.578125 166.578125 237.886719 165.398438 C 237.914062 165.277344 237.941406 165.167969 237.960938 165.082031 C 244.859375 174.460938 244.898438 187.390625 240.464844 197.773438 C 240.265625 198.242188 240.0625 198.699219 239.839844 199.152344 C 239.558594 199.753906 239.257812 200.34375 238.941406 200.914062 C 238.148438 202.351562 237.265625 203.742188 236.285156 205.066406 C 236.253906 205.109375 236.222656 205.148438 236.195312 205.183594 C 235.414062 206.128906 234.527344 207.03125 233.515625 207.871094 C 230.886719 210.050781 227.84375 211.621094 224.574219 212.574219 Z M 223.472656 227.511719 C 221.785156 236.699219 216.539062 244.488281 208.828125 249.644531 C 196.554688 257.851562 180.828125 256.179688 168.96875 248.1875 C 163.1875 244.296875 159.316406 238.902344 157.351562 232.09375 C 157.113281 231.285156 156.90625 230.457031 156.726562 229.632812 C 155.320312 223.195312 155.546875 216.359375 157.40625 210.371094 C 161.445312 197.386719 173.511719 189.992188 186.316406 187.996094 C 186.703125 187.9375 187.097656 187.886719 187.492188 187.835938 C 206.203125 185.367188 228.03125 204.402344 223.472656 227.511719 Z M 142.179688 216.238281 C 142.859375 216.730469 143.882812 217.445312 145.324219 218.195312 C 146.765625 218.933594 148.621094 219.726562 150.910156 220.292969 C 151.863281 220.527344 152.902344 220.71875 154 220.847656 C 153.980469 221.628906 153.988281 222.40625 154.019531 223.183594 C 152.160156 223.320312 150.390625 223.234375 148.785156 222.992188 C 145.765625 222.53125 143.285156 221.566406 141.378906 220.601562 C 139.46875 219.621094 138.136719 218.605469 137.25 217.910156 C 136.394531 217.164062 135.953125 216.777344 135.953125 216.777344 C 135.953125 216.777344 136.328125 217.226562 137.097656 218.070312 C 137.902344 218.875 139.144531 220.046875 141.023438 221.222656 C 142.902344 222.378906 145.414062 223.570312 148.574219 224.199219 C 150.25 224.535156 152.125 224.695312 154.109375 224.597656 C 154.15625 225.15625 154.214844 225.714844 154.285156 226.265625 C 151.207031 226.574219 148.285156 226.34375 145.722656 225.765625 C 141.726562 224.882812 138.558594 223.207031 136.210938 221.578125 C 133.855469 219.9375 132.285156 218.332031 131.28125 217.214844 C 130.78125 216.652344 130.414062 216.210938 130.179688 215.902344 C 129.941406 215.601562 129.816406 215.449219 129.816406 215.449219 C 129.816406 215.449219 129.921875 215.613281 130.128906 215.9375 C 130.332031 216.269531 130.660156 216.742188 131.109375 217.355469 C 132.019531 218.566406 133.476562 220.320312 135.785156 222.152344 C 138.085938 223.96875 141.28125 225.882812 145.4375 226.960938 C 148.121094 227.660156 151.21875 228 154.507812 227.714844 C 154.632812 228.433594 154.773438 229.144531 154.941406 229.855469 C 134.886719 231.804688 119.671875 214.246094 120.660156 193.898438 C 121.082031 185.207031 124.839844 177.050781 131.011719 171.175781 C 130.238281 172.214844 129.28125 173.191406 128.882812 174.320312 C 128.542969 175.292969 128.496094 176.433594 128.984375 177.316406 C 128.890625 177.152344 126.832031 178.042969 126.613281 178.15625 C 125.855469 178.566406 125.238281 179.128906 124.753906 179.84375 C 124.078125 180.847656 123.710938 182.050781 123.429688 183.214844 C 123.023438 184.867188 122.996094 186.679688 122.78125 188.371094 C 122.765625 188.523438 125.101562 188.582031 125.332031 188.515625 C 126.03125 188.308594 126.667969 187.734375 127.304688 187.351562 C 126.074219 188.085938 128.089844 191.160156 128.511719 191.898438 C 128.9375 192.632812 129.402344 193.863281 130.363281 193.945312 C 131.425781 194.035156 132.453125 192.828125 133.351562 192.425781 C 135.394531 191.511719 137.074219 190.019531 137.910156 187.941406 C 138.070312 187.550781 138.054688 183.703125 137.566406 183.820312 C 137.941406 183.734375 138.316406 183.53125 138.707031 183.234375 C 139.277344 182.792969 139.859375 182.3125 140.527344 182.027344 C 142.078125 181.355469 142.828125 181.375 143.855469 179.855469 C 144.550781 178.828125 144.742188 177.511719 145.136719 176.371094 C 145.226562 176.117188 145.910156 172.605469 145.292969 172.738281 C 143.980469 173.027344 142.738281 172.824219 141.5 172.347656 C 140.449219 171.941406 139.738281 171.945312 138.804688 172.820312 C 139.140625 172.503906 138.097656 170.777344 137.90625 170.539062 C 137.273438 169.769531 135.246094 168.824219 134.042969 168.359375 C 134.988281 167.566406 136.117188 166.945312 137.332031 166.460938 C 140.65625 164.273438 144.941406 163 148.820312 162.304688 C 155.089844 161.1875 161.695312 161.78125 167.507812 164.464844 C 172.367188 166.714844 176.355469 170 179.472656 173.996094 C 179.835938 174.464844 180.191406 174.941406 180.535156 175.425781 C 182.859375 178.726562 184.636719 182.449219 185.855469 186.390625 C 174.523438 187.589844 163.738281 195.066406 158.359375 204.886719 C 155.792969 209.570312 154.394531 214.515625 154.066406 219.460938 C 150.558594 219.175781 147.683594 218.324219 145.617188 217.539062 C 144.140625 216.976562 143.039062 216.425781 142.296875 216.050781 C 141.5625 215.65625 141.179688 215.453125 141.179688 215.453125 C 141.179688 215.453125 141.511719 215.730469 142.179688 216.238281 Z M 139.058594 180.683594 C 138.894531 180.777344 138.730469 180.886719 138.558594 181.035156 C 137.757812 181.730469 137.203125 182.429688 136.277344 182.972656 C 136.265625 182.980469 136.585938 186.484375 136.503906 186.945312 C 136.3125 188.058594 135.550781 189.574219 134.390625 189.910156 C 134.371094 189.742188 134.316406 189.503906 134.183594 189.382812 C 127.554688 183.273438 136.796875 175.011719 141.753906 180.175781 C 141.648438 180.1875 141.542969 180.191406 141.433594 180.199219 C 140.351562 179.660156 139.109375 179.4375 137.90625 179.59375 C 136.113281 179.824219 134.964844 180.582031 133.976562 182.078125 C 135.429688 181.015625 137.269531 180.546875 139.058594 180.683594 Z M 133.035156 169.367188 C 133.988281 170.136719 134.9375 170.078125 135.9375 170.605469 C 136.832031 171.078125 137.734375 171.953125 138.070312 172.929688 C 138.394531 173.898438 137.050781 175.027344 137.386719 175.820312 C 137.636719 176.402344 138.472656 174.953125 138.578125 174.828125 C 139.167969 174.140625 140.105469 173.636719 141.0625 173.75 C 142.132812 173.875 143.003906 174.800781 144.042969 175.125 C 144.070312 175.132812 143.257812 178.113281 143.183594 178.289062 C 143.078125 178.535156 142.191406 179.628906 142.238281 179.785156 C 141 175.675781 135.261719 176.746094 132.6875 178.964844 C 130.765625 180.621094 130.007812 183.386719 130.402344 185.84375 C 130.613281 187.160156 131.164062 188.34375 131.996094 189.382812 C 132.617188 190.152344 133.015625 190.273438 132.417969 191.136719 C 131.957031 191.804688 131.089844 192.183594 130.59375 192.824219 C 130.011719 191.816406 129.351562 191.261719 129.003906 190.085938 C 128.589844 188.683594 128.414062 187.210938 128.496094 185.753906 C 127.261719 186.5 123.617188 188.75 123.863281 185.863281 C 124.007812 184.195312 124.265625 182.296875 125.382812 180.96875 C 126.730469 179.363281 128.300781 178.390625 130.316406 178.742188 C 129.449219 178.589844 130.609375 174.179688 130.804688 173.695312 C 131.414062 172.175781 132.386719 170.90625 133.003906 169.398438 C 133.011719 169.390625 133.023438 169.375 133.035156 169.367188 Z M 181.167969 169.109375 C 180.8125 169.882812 180.484375 170.667969 180.207031 171.472656 C 177.769531 168.625 174.867188 166.167969 171.742188 164.269531 C 171.347656 164.03125 170.9375 163.816406 170.53125 163.59375 C 172.253906 163.953125 174.558594 164.460938 177.34375 165.222656 C 178.578125 166.582031 179.84375 167.898438 181.167969 169.109375 Z M 148.304688 132.621094 C 152.292969 134.027344 156.527344 134.683594 160.542969 136.03125 C 164.90625 137.488281 169.136719 139.273438 173.164062 141.511719 C 180.285156 145.472656 186.414062 150.558594 191.992188 156.386719 C 187.933594 159.371094 184.425781 163.097656 182.0625 167.375 C 180.359375 165.085938 178.347656 162.921875 176.292969 160.832031 C 176.511719 156.714844 176.925781 153.414062 177.25 151.09375 C 177.613281 148.542969 177.851562 147.164062 177.851562 147.164062 C 177.851562 147.164062 177.359375 148.476562 176.722656 150.988281 C 176.195312 153.09375 175.585938 156.070312 175.265625 159.789062 C 174.023438 158.546875 172.785156 157.332031 171.601562 156.125 C 167.308594 151.78125 162.867188 147.671875 158.207031 143.738281 C 158.140625 143.679688 158.050781 143.769531 158.109375 143.835938 C 161.058594 147.078125 164.015625 150.308594 166.972656 153.535156 C 163.449219 152.472656 160.476562 152.046875 158.34375 151.859375 C 157.066406 151.746094 156.078125 151.726562 155.414062 151.71875 C 154.746094 151.722656 154.398438 151.726562 154.398438 151.726562 C 154.398438 151.726562 154.742188 151.777344 155.398438 151.882812 C 156.054688 151.992188 157.023438 152.148438 158.273438 152.390625 C 160.71875 152.871094 164.257812 153.675781 168.511719 155.214844 C 169.015625 155.765625 169.519531 156.320312 170.023438 156.871094 C 172.054688 159.089844 174.035156 161.488281 176.082031 163.8125 C 173.726562 163.320312 171.742188 163.097656 170.257812 162.992188 C 169.890625 162.964844 169.566406 162.949219 169.261719 162.933594 C 164.878906 160.792969 160.050781 159.683594 155.195312 159.613281 C 147.222656 139.699219 149.386719 142.046875 148.304688 132.621094 Z M 201.550781 139.21875 C 203.625 136.96875 205.917969 134.933594 208.40625 133.152344 C 210.730469 131.488281 213.386719 130.351562 215.714844 128.742188 C 216.25 130.75 217.289062 132.683594 217.996094 134.617188 C 218.828125 136.878906 219.519531 139.207031 220.050781 141.558594 C 220.769531 144.757812 221 147.941406 221.179688 151.140625 C 217.589844 150.015625 214.003906 149.511719 210.457031 149.636719 C 210.898438 148.792969 211.261719 147.875 211.578125 146.929688 L 211.582031 146.933594 C 216.34375 142.792969 218.816406 139.972656 218.816406 139.972656 C 218.816406 139.972656 216.207031 141.644531 212.132812 145.007812 C 212.867188 141.925781 213.019531 138.628906 212.648438 135.8125 C 212.644531 135.78125 212.597656 135.769531 212.59375 135.804688 C 212.128906 138.355469 211.71875 140.902344 211.082031 143.417969 C 210.535156 145.601562 209.582031 147.621094 208.890625 149.734375 C 208.058594 149.804688 207.234375 149.925781 206.414062 150.0625 C 203.476562 145.679688 201.339844 143.402344 201.339844 143.402344 C 201.339844 143.402344 202.398438 146.101562 204.90625 150.355469 C 201.25 151.167969 197.671875 152.664062 194.21875 154.867188 C 193.914062 155.0625 193.609375 155.261719 193.300781 155.464844 C 192.945312 155.054688 192.589844 154.660156 192.210938 154.269531 C 195.152344 148.949219 197.335938 143.796875 201.550781 139.21875 Z M 275 213.152344 C 266.765625 212.550781 261.578125 205.480469 255 201.546875 C 251.59375 199.507812 246.78125 197.4375 242.382812 197.566406 C 242.515625 197.070312 242.621094 196.570312 242.703125 196.0625 C 242.703125 196.054688 242.703125 196.050781 242.710938 196.042969 C 249.605469 178.304688 242.355469 160.339844 225.292969 152.703125 C 224.550781 152.375 223.808594 152.070312 223.070312 151.796875 C 223.085938 148.378906 222.535156 144.914062 221.828125 141.648438 C 220.882812 137.28125 219.492188 131.359375 216.320312 127.933594 L 216.316406 127.929688 C 216.226562 125.746094 207.964844 129.632812 200.351562 138.015625 C 196.574219 142.171875 192.558594 147.679688 191.335938 153.324219 C 191.332031 153.324219 191.332031 153.324219 191.332031 153.320312 C 186.152344 147.972656 179.992188 143.46875 173.519531 139.914062 C 166.167969 135.867188 156.75 131.394531 148.164062 131.675781 C 147.421875 131.695312 146.203125 136.289062 148.796875 147.359375 C 149.75 151.421875 151.207031 155.828125 153.289062 159.636719 C 148.65625 159.816406 144.042969 160.933594 139.839844 162.96875 C 117.730469 173.675781 112.214844 203.882812 128.804688 221.945312 C 135.867188 229.632812 145.671875 233.382812 155.632812 232.324219 C 157.21875 237.347656 159.925781 242.09375 163.644531 246.269531 C 173.875 257.734375 190.976562 260.976562 204.984375 254.609375 C 215.429688 249.863281 222.914062 239.542969 225.085938 228.308594 C 232.742188 232.421875 242.265625 233.433594 250.621094 231.828125 C 261.296875 229.773438 270.136719 223.269531 275.359375 213.769531 C 275.515625 213.488281 275.3125 213.183594 275 213.152344 " fill-opacity="1" fill-rule="nonzero"/></g><path fill="#ffffff" d="M 177.917969 210.546875 C 178.425781 209.636719 179.203125 208.820312 180.113281 208.300781 C 181.128906 207.71875 182.03125 207.953125 183.101562 207.734375 C 183.191406 207.722656 183.246094 207.660156 183.265625 207.601562 C 183.296875 207.484375 183.230469 207.328125 183.101562 207.285156 C 178.242188 205.371094 182.738281 200.996094 184.03125 198.445312 C 184.578125 197.378906 184.875 196.347656 184.820312 195.238281 C 184.824219 195.34375 187.1875 196.050781 187.429688 196.148438 C 188.328125 196.515625 189.210938 196.933594 190.03125 197.449219 C 191.253906 198.214844 192.5 199.203125 193.210938 200.484375 C 194.304688 202.453125 191.628906 201.6875 190.503906 201.792969 C 187.714844 202.0625 184.722656 203.511719 183.636719 206.234375 C 183.03125 207.746094 183.042969 209.578125 183.785156 211 C 184.027344 212.542969 184.855469 214.019531 186.191406 215.152344 C 188.328125 216.96875 191.203125 217.558594 193.933594 217.179688 C 195.613281 216.945312 197.949219 216.523438 199.054688 215.078125 C 199.980469 213.863281 199.148438 212.183594 198.644531 211.023438 C 197.507812 208.40625 194.40625 206.46875 191.515625 206.214844 C 189.433594 206.03125 187.113281 206.695312 186.066406 208.667969 C 185.285156 210.144531 185.542969 212.148438 187.140625 212.878906 C 187.195312 212.902344 187.25 212.851562 187.222656 212.796875 C 185.175781 208.554688 189.847656 207.132812 193.085938 208.125 C 193.988281 208.402344 194.800781 208.820312 195.492188 209.351562 C 194.75 209.265625 194.070312 209.359375 193.535156 209.519531 C 192.617188 209.796875 192.027344 210.242188 191.683594 210.566406 C 191.335938 210.894531 191.207031 211.101562 191.207031 211.101562 C 191.207031 211.101562 191.40625 210.957031 191.808594 210.746094 C 192.214844 210.542969 192.84375 210.292969 193.671875 210.222656 C 194.492188 210.152344 195.523438 210.273438 196.457031 210.878906 C 196.773438 211.078125 197.078125 211.335938 197.355469 211.644531 C 197.863281 212.757812 198.015625 214.054688 197.683594 215.457031 C 197.664062 215.453125 197.648438 215.449219 197.625 215.453125 C 194.679688 215.757812 191.835938 216.039062 189.039062 214.785156 C 186.34375 213.574219 184.550781 210.933594 184.734375 208.082031 C 185.613281 205.421875 188.808594 203.636719 192.058594 203.605469 C 194.46875 203.585938 196.945312 204.382812 198.621094 206.171875 C 199.398438 206.996094 199.96875 208.003906 200.273438 209.097656 C 200.707031 210.644531 200.460938 211.699219 200.078125 213.242188 C 200.222656 212.65625 201.367188 212.53125 201.832031 212.457031 C 203.84375 212.140625 204.980469 213.496094 206.277344 214.714844 C 206.472656 214.902344 206.640625 215.042969 206.796875 215.152344 C 206.105469 216.195312 205.78125 217.609375 205.207031 218.585938 C 202.546875 223.132812 196.46875 218.152344 195.226562 218.507812 C 195.226562 218.507812 195.714844 222.980469 193.152344 224.582031 C 191.570312 225.570312 189.769531 226.128906 188.117188 227.007812 C 188.011719 225.742188 187.878906 224.59375 187.253906 223.375 C 186.070312 221.054688 183.703125 218.464844 186.671875 216.34375 C 186.777344 216.261719 186.777344 216.085938 186.628906 216.046875 C 184.894531 215.5625 183.714844 217.207031 183.617188 218.8125 C 183.609375 218.957031 183.609375 219.105469 183.617188 219.238281 C 181.847656 219.722656 180.378906 218.269531 178.90625 217.328125 C 177.773438 216.597656 176.628906 215.921875 175.367188 215.480469 C 175.800781 215.632812 177.65625 211.015625 177.917969 210.546875 Z M 194.203125 202.15625 C 194.425781 199.863281 197.304688 199.464844 199.097656 199.210938 C 199.699219 199.121094 201.019531 198.832031 201.761719 198.824219 C 203.375 198.792969 202.886719 199.210938 203.210938 200.429688 C 204.261719 204.351562 206.6875 207.015625 205.140625 211.253906 C 204.921875 211.121094 204.691406 211.023438 204.441406 210.964844 C 203.316406 210.683594 202.3125 210.890625 201.316406 211.441406 C 201.285156 211.457031 201.261719 211.480469 201.242188 211.503906 C 201.234375 211.503906 201.234375 211.507812 201.234375 211.507812 C 201.230469 211.511719 201.230469 211.519531 201.226562 211.523438 C 201.972656 207.105469 198.40625 203.371094 194.203125 202.164062 C 194.203125 202.160156 194.203125 202.160156 194.203125 202.15625 Z M 183.800781 220.332031 C 183.980469 220.964844 184.277344 221.558594 184.628906 222.125 C 185.214844 223.074219 186.230469 223.859375 186.703125 224.859375 C 187.203125 225.90625 187.164062 227.035156 187.273438 228.152344 C 188.0625 228.035156 188.808594 227.777344 189.617188 227.683594 C 190.441406 227.589844 191.433594 227.429688 192.207031 227.101562 C 193.824219 226.417969 195.554688 225.445312 196.382812 223.820312 C 197.050781 222.535156 197.097656 221.039062 196.597656 219.789062 C 198.53125 221.238281 201.398438 222.132812 203.460938 221.738281 C 204.640625 221.515625 205.519531 221.054688 206.195312 220.050781 C 206.589844 219.46875 206.671875 218.394531 207 217.722656 C 207.507812 216.695312 207.988281 215.660156 208.976562 215.003906 C 208.910156 214.949219 208.710938 214.765625 208.441406 214.507812 C 207.535156 213.632812 205.859375 211.9375 205.953125 211.832031 C 209.636719 207.625 205.011719 202.304688 203.859375 198.011719 C 203.808594 197.820312 203.617188 197.667969 203.421875 197.675781 C 201.167969 197.75 194.664062 197.0625 193.445312 199.71875 C 191.71875 196.289062 187.046875 193.90625 183.273438 193.777344 C 184.546875 198.003906 179.367188 200.628906 179.804688 204.730469 C 179.898438 205.566406 180.230469 206.367188 180.765625 206.941406 C 179.777344 206.84375 178.710938 207.371094 177.941406 208.117188 C 176.851562 209.164062 176.382812 210.609375 175.878906 211.988281 C 175.53125 212.925781 174.925781 215.253906 173.898438 215.628906 C 174.507812 217.742188 180.199219 220.941406 183.800781 220.332031 " fill-opacity="1" fill-rule="nonzero"/><path fill="#ffffff" d="M 206.4375 247.414062 C 204.078125 248.378906 200.855469 249.5625 196.46875 250.253906 C 194.28125 250.601562 191.800781 250.820312 189.042969 250.703125 C 186.292969 250.585938 183.253906 250.136719 180.074219 249.097656 C 176.898438 248.054688 174.226562 246.617188 172.019531 245.085938 C 169.804688 243.550781 168.050781 241.917969 166.628906 240.367188 C 163.761719 237.261719 162.296875 234.457031 161.332031 232.398438 C 161.105469 231.875 160.902344 231.394531 160.714844 230.964844 C 160.546875 230.523438 160.421875 230.125 160.289062 229.765625 C 160.015625 229.058594 159.863281 228.496094 159.746094 228.070312 C 159.503906 227.230469 159.394531 226.9375 159.394531 226.9375 C 159.394531 226.9375 159.457031 227.371094 159.597656 228.410156 C 159.753906 229.453125 160.109375 231.101562 161.015625 233.421875 C 161.941406 235.722656 163.535156 238.6875 166.425781 241.902344 C 167.894531 243.476562 169.695312 245.097656 171.914062 246.605469 C 174.132812 248.109375 176.78125 249.496094 179.890625 250.496094 C 183.207031 251.558594 186.363281 251.972656 189.207031 252.03125 C 192.050781 252.09375 194.597656 251.820312 196.824219 251.382812 C 201.289062 250.519531 204.496094 249.152344 206.796875 248.011719 C 209.09375 246.84375 210.523438 245.886719 211.390625 245.261719 C 212.25 244.628906 212.582031 244.359375 212.582031 244.359375 C 212.582031 244.359375 212.199219 244.570312 211.253906 245.085938 C 210.316406 245.605469 208.792969 246.414062 206.4375 247.414062 " fill-opacity="1" fill-rule="nonzero"/><path fill="#ffffff" d="M 169.8125 239.894531 C 170.578125 240.796875 171.679688 241.9375 173.3125 243.191406 C 174.957031 244.414062 177.152344 245.761719 180.109375 246.75 C 183.269531 247.800781 186.011719 248.003906 188.175781 247.933594 C 190.351562 247.863281 191.980469 247.519531 193.167969 247.191406 C 194.355469 246.855469 195.113281 246.535156 195.574219 246.316406 C 196.035156 246.09375 196.214844 245.984375 196.214844 245.984375 C 196.214844 245.984375 196.003906 246.011719 195.5 246.113281 C 195 246.207031 194.195312 246.355469 192.996094 246.515625 C 191.796875 246.664062 190.191406 246.832031 188.101562 246.761719 C 186.019531 246.695312 183.425781 246.402344 180.429688 245.394531 C 177.4375 244.378906 175.257812 243.082031 173.613281 241.960938 C 171.96875 240.835938 170.859375 239.851562 170.042969 239.136719 C 169.238281 238.40625 168.738281 237.929688 168.425781 237.644531 C 168.113281 237.359375 167.988281 237.277344 167.988281 237.277344 C 167.988281 237.277344 168.082031 237.460938 168.34375 237.890625 C 168.605469 238.320312 169.054688 238.984375 169.8125 239.894531 " fill-opacity="1" fill-rule="nonzero"/><g fill="#ffffff" fill-opacity="1"><g transform="translate(93.507637, 333.799263)"><g><path d="M 2.921875 -0.640625 L 2.921875 -14.578125 C 2.921875 -14.773438 2.984375 -14.9375 3.109375 -15.0625 C 3.242188 -15.1875 3.410156 -15.25 3.609375 -15.25 L 7.609375 -15.25 L 2.4375 -25.203125 C 2.40625 -25.265625 2.375 -25.316406 2.34375 -25.359375 C 2.320312 -25.410156 2.3125 -25.46875 2.3125 -25.53125 C 2.3125 -25.644531 2.363281 -25.722656 2.46875 -25.765625 C 2.570312 -25.816406 2.691406 -25.84375 2.828125 -25.84375 L 13.953125 -25.84375 C 14.960938 -25.84375 15.90625 -25.660156 16.78125 -25.296875 C 17.65625 -24.929688 18.421875 -24.421875 19.078125 -23.765625 C 19.742188 -23.109375 20.257812 -22.34375 20.625 -21.46875 C 21 -20.601562 21.1875 -19.664062 21.1875 -18.65625 C 21.1875 -17.707031 21.007812 -16.8125 20.65625 -15.96875 C 20.3125 -15.125 19.828125 -14.378906 19.203125 -13.734375 C 20.179688 -13.015625 20.96875 -12.125 21.5625 -11.0625 C 22.15625 -10 22.453125 -8.863281 22.453125 -7.65625 C 22.453125 -6.632812 22.257812 -5.660156 21.875 -4.734375 C 21.5 -3.816406 20.972656 -3 20.296875 -2.28125 C 19.617188 -1.570312 18.832031 -1.015625 17.9375 -0.609375 C 17.039062 -0.203125 16.078125 0 15.046875 0 L 3.625 0 C 3.425781 0 3.257812 -0.046875 3.125 -0.140625 C 2.988281 -0.242188 2.921875 -0.410156 2.921875 -0.640625 Z M 17.78125 -7.78125 C 17.78125 -8.34375 17.65625 -8.875 17.40625 -9.375 C 17.15625 -9.882812 16.8125 -10.3125 16.375 -10.65625 C 15.9375 -11.007812 15.441406 -11.21875 14.890625 -11.28125 C 14.660156 -11.320312 14.421875 -11.351562 14.171875 -11.375 C 13.929688 -11.394531 13.679688 -11.40625 13.421875 -11.40625 L 7.734375 -11.40625 L 7.734375 -4.0625 L 14.34375 -4.0625 C 14.988281 -4.0625 15.566406 -4.234375 16.078125 -4.578125 C 16.597656 -4.929688 17.007812 -5.390625 17.3125 -5.953125 C 17.625 -6.523438 17.78125 -7.132812 17.78125 -7.78125 Z M 16.625 -18.5625 C 16.625 -19.164062 16.484375 -19.710938 16.203125 -20.203125 C 15.929688 -20.691406 15.546875 -21.078125 15.046875 -21.359375 C 14.554688 -21.648438 13.988281 -21.796875 13.34375 -21.796875 L 8.8125 -21.796875 L 12.3125 -15.234375 L 12.984375 -15.234375 C 13.679688 -15.234375 14.300781 -15.359375 14.84375 -15.609375 C 15.394531 -15.867188 15.828125 -16.25 16.140625 -16.75 C 16.460938 -17.25 16.625 -17.851562 16.625 -18.5625 Z M 16.625 -18.5625 "/></g></g></g><g fill="#ffffff" fill-opacity="1"><g transform="translate(117.756143, 333.799263)"><g><path d="M 2.890625 -0.65625 L 2.890625 -25.203125 C 2.890625 -25.390625 2.945312 -25.546875 3.0625 -25.671875 C 3.175781 -25.796875 3.34375 -25.859375 3.5625 -25.859375 L 7.046875 -25.859375 C 7.234375 -25.859375 7.394531 -25.800781 7.53125 -25.6875 C 7.664062 -25.582031 7.734375 -25.421875 7.734375 -25.203125 L 7.734375 -4.578125 L 18.84375 -4.578125 C 19.019531 -4.578125 19.171875 -4.515625 19.296875 -4.390625 C 19.429688 -4.273438 19.5 -4.097656 19.5 -3.859375 L 19.5 -0.671875 C 19.5 -0.492188 19.441406 -0.335938 19.328125 -0.203125 C 19.210938 -0.0664062 19.050781 0 18.84375 0 L 3.546875 0 C 3.109375 0 2.890625 -0.21875 2.890625 -0.65625 Z M 2.890625 -0.65625 "/></g></g></g><g fill="#ffffff" fill-opacity="1"><g transform="translate(137.809471, 333.799263)"><g><path d="M 7.546875 -25.1875 L 7.546875 -11.71875 C 7.546875 -10.84375 7.597656 -9.992188 7.703125 -9.171875 C 7.835938 -8.054688 8.164062 -7.113281 8.6875 -6.34375 C 9.21875 -5.582031 9.890625 -5.003906 10.703125 -4.609375 C 11.515625 -4.210938 12.425781 -4.015625 13.4375 -4.015625 C 14.519531 -4.015625 15.472656 -4.226562 16.296875 -4.65625 C 17.117188 -5.082031 17.785156 -5.679688 18.296875 -6.453125 C 18.804688 -7.234375 19.125 -8.144531 19.25 -9.1875 C 19.351562 -10.019531 19.40625 -10.863281 19.40625 -11.71875 L 19.40625 -25.1875 C 19.40625 -25.382812 19.460938 -25.539062 19.578125 -25.65625 C 19.703125 -25.78125 19.878906 -25.84375 20.109375 -25.84375 L 23.484375 -25.84375 C 23.710938 -25.84375 23.898438 -25.78125 24.046875 -25.65625 C 24.191406 -25.539062 24.265625 -25.382812 24.265625 -25.1875 L 24.265625 -10.296875 C 24.265625 -8.503906 23.976562 -6.9375 23.40625 -5.59375 C 22.832031 -4.257812 22.039062 -3.144531 21.03125 -2.25 C 20.03125 -1.363281 18.878906 -0.695312 17.578125 -0.25 C 16.285156 0.1875 14.90625 0.40625 13.4375 0.40625 C 11.976562 0.40625 10.597656 0.171875 9.296875 -0.296875 C 7.992188 -0.765625 6.84375 -1.445312 5.84375 -2.34375 C 4.851562 -3.25 4.070312 -4.367188 3.5 -5.703125 C 2.925781 -7.035156 2.640625 -8.566406 2.640625 -10.296875 L 2.640625 -25.1875 C 2.640625 -25.351562 2.695312 -25.503906 2.8125 -25.640625 C 2.925781 -25.773438 3.070312 -25.84375 3.25 -25.84375 L 6.828125 -25.84375 C 6.972656 -25.84375 7.128906 -25.78125 7.296875 -25.65625 C 7.460938 -25.539062 7.546875 -25.382812 7.546875 -25.1875 Z M 7.546875 -25.1875 "/></g></g></g><g fill="#ffffff" fill-opacity="1"><g transform="translate(164.338355, 333.799263)"><g><path d="M 6.96875 -25.28125 L 12.359375 -15.40625 C 13.265625 -17.070312 14.171875 -18.726562 15.078125 -20.375 C 15.992188 -22.019531 16.90625 -23.679688 17.8125 -25.359375 C 17.925781 -25.585938 18.019531 -25.71875 18.09375 -25.75 C 18.175781 -25.78125 18.289062 -25.816406 18.4375 -25.859375 L 23.265625 -25.859375 C 23.410156 -25.859375 23.484375 -25.796875 23.484375 -25.671875 C 23.484375 -25.609375 23.460938 -25.550781 23.421875 -25.5 C 23.390625 -25.445312 23.34375 -25.375 23.28125 -25.28125 C 21.84375 -22.894531 20.429688 -20.515625 19.046875 -18.140625 C 17.660156 -15.765625 16.242188 -13.382812 14.796875 -11 L 14.796875 -0.734375 C 14.796875 -0.242188 14.570312 0 14.125 0 L 10.546875 0 C 10.128906 0 9.921875 -0.242188 9.921875 -0.734375 L 9.921875 -10.96875 L 1.46875 -25.25 C 1.40625 -25.34375 1.351562 -25.421875 1.3125 -25.484375 C 1.269531 -25.546875 1.25 -25.609375 1.25 -25.671875 C 1.25 -25.796875 1.335938 -25.859375 1.515625 -25.859375 L 6.296875 -25.859375 C 6.421875 -25.835938 6.507812 -25.816406 6.5625 -25.796875 C 6.613281 -25.773438 6.664062 -25.726562 6.71875 -25.65625 C 6.78125 -25.59375 6.863281 -25.46875 6.96875 -25.28125 Z M 6.96875 -25.28125 "/></g></g></g><g fill="#ffffff" fill-opacity="1"><g transform="translate(188.517234, 333.799263)"><g><path d="M 2.953125 -0.65625 L 2.953125 -25.1875 C 2.953125 -25.382812 3.007812 -25.539062 3.125 -25.65625 C 3.25 -25.78125 3.414062 -25.84375 3.625 -25.84375 L 7.109375 -25.84375 C 7.273438 -25.84375 7.441406 -25.785156 7.609375 -25.671875 C 7.773438 -25.554688 7.859375 -25.394531 7.859375 -25.1875 L 7.859375 -0.65625 C 7.859375 -0.21875 7.609375 0 7.109375 0 L 3.625 0 C 3.175781 0 2.953125 -0.21875 2.953125 -0.65625 Z M 2.953125 -0.65625 "/></g></g></g><g fill="#ffffff" fill-opacity="1"><g transform="translate(198.404641, 333.799263)"><g><path d="M 17.359375 -17.546875 C 17.359375 -18.242188 17.179688 -18.898438 16.828125 -19.515625 C 16.484375 -20.128906 16.003906 -20.628906 15.390625 -21.015625 C 14.785156 -21.410156 14.101562 -21.609375 13.34375 -21.609375 L 9.03125 -21.609375 L 13.203125 -13.5 C 13.972656 -13.539062 14.671875 -13.75 15.296875 -14.125 C 15.929688 -14.5 16.429688 -14.984375 16.796875 -15.578125 C 17.171875 -16.171875 17.359375 -16.828125 17.359375 -17.546875 Z M 2.890625 -0.640625 C 2.890625 -0.796875 2.890625 -0.945312 2.890625 -1.09375 C 2.898438 -1.238281 2.90625 -1.382812 2.90625 -1.53125 L 2.90625 -12.859375 C 2.90625 -13.046875 2.96875 -13.203125 3.09375 -13.328125 C 3.226562 -13.460938 3.394531 -13.53125 3.59375 -13.53125 L 8.234375 -13.53125 L 2.4375 -25.203125 C 2.40625 -25.265625 2.375 -25.316406 2.34375 -25.359375 C 2.320312 -25.410156 2.3125 -25.46875 2.3125 -25.53125 C 2.3125 -25.644531 2.363281 -25.722656 2.46875 -25.765625 C 2.570312 -25.816406 2.691406 -25.84375 2.828125 -25.84375 L 14.25 -25.84375 C 15.414062 -25.84375 16.484375 -25.613281 17.453125 -25.15625 C 18.429688 -24.695312 19.28125 -24.070312 20 -23.28125 C 20.71875 -22.5 21.269531 -21.613281 21.65625 -20.625 C 22.050781 -19.632812 22.25 -18.597656 22.25 -17.515625 C 22.25 -16.472656 22.054688 -15.460938 21.671875 -14.484375 C 21.296875 -13.515625 20.753906 -12.640625 20.046875 -11.859375 C 19.335938 -11.078125 18.5 -10.457031 17.53125 -10 C 16.570312 -9.539062 15.507812 -9.304688 14.34375 -9.296875 L 7.75 -9.296875 L 7.75 -0.640625 C 7.75 -0.210938 7.519531 0 7.0625 0 L 3.5625 0 C 3.113281 0 2.890625 -0.210938 2.890625 -0.640625 Z M 2.890625 -0.640625 "/></g></g></g><g fill="#ffffff" fill-opacity="1"><g transform="translate(221.034258, 333.799263)"><g><path d="M 16.0625 -0.65625 L 11.234375 -9.296875 L 7.75 -9.296875 L 7.75 -0.640625 C 7.75 -0.210938 7.519531 0 7.0625 0 L 3.5625 0 C 3.113281 0 2.890625 -0.210938 2.890625 -0.640625 C 2.890625 -2.703125 2.890625 -4.738281 2.890625 -6.75 C 2.898438 -8.757812 2.90625 -10.796875 2.90625 -12.859375 C 2.90625 -13.046875 2.96875 -13.203125 3.09375 -13.328125 C 3.226562 -13.460938 3.394531 -13.53125 3.59375 -13.53125 L 8.9375 -13.53125 L 2.390625 -25.21875 C 2.316406 -25.320312 2.28125 -25.429688 2.28125 -25.546875 C 2.28125 -25.742188 2.421875 -25.84375 2.703125 -25.84375 L 14.25 -25.84375 C 15.414062 -25.84375 16.484375 -25.613281 17.453125 -25.15625 C 18.429688 -24.695312 19.28125 -24.070312 20 -23.28125 C 20.71875 -22.5 21.269531 -21.613281 21.65625 -20.625 C 22.050781 -19.632812 22.25 -18.597656 22.25 -17.515625 C 22.25 -16.660156 22.113281 -15.820312 21.84375 -15 C 21.582031 -14.1875 21.203125 -13.425781 20.703125 -12.71875 C 20.203125 -12.007812 19.601562 -11.390625 18.90625 -10.859375 C 18.207031 -10.328125 17.429688 -9.921875 16.578125 -9.640625 L 21.734375 -0.578125 C 21.765625 -0.492188 21.796875 -0.421875 21.828125 -0.359375 C 21.859375 -0.296875 21.875 -0.238281 21.875 -0.1875 C 21.875 -0.0625 21.71875 0 21.40625 0 L 17.046875 0 C 16.628906 0 16.300781 -0.21875 16.0625 -0.65625 Z M 17.453125 -17.546875 C 17.453125 -18.203125 17.296875 -18.816406 16.984375 -19.390625 C 16.679688 -19.972656 16.265625 -20.457031 15.734375 -20.84375 C 15.203125 -21.238281 14.601562 -21.472656 13.9375 -21.546875 C 13.6875 -21.566406 13.4375 -21.582031 13.1875 -21.59375 C 12.945312 -21.601562 12.703125 -21.609375 12.453125 -21.609375 L 9.796875 -21.609375 L 14.328125 -13.703125 C 14.910156 -13.816406 15.4375 -14.0625 15.90625 -14.4375 C 16.375 -14.820312 16.75 -15.285156 17.03125 -15.828125 C 17.3125 -16.367188 17.453125 -16.941406 17.453125 -17.546875 Z M 17.453125 -17.546875 "/></g></g></g><g fill="#ffffff" fill-opacity="1"><g transform="translate(244.952021, 333.799263)"><g><path d="M 7.953125 -14.125 L 7.953125 -11.875 L 17.5 -11.875 C 17.726562 -11.894531 17.910156 -11.84375 18.046875 -11.71875 C 18.191406 -11.601562 18.265625 -11.398438 18.265625 -11.109375 L 18.265625 -7.953125 C 18.265625 -7.742188 18.207031 -7.554688 18.09375 -7.390625 C 17.976562 -7.234375 17.789062 -7.15625 17.53125 -7.15625 L 7.953125 -7.15625 L 7.953125 -4.75 L 20.796875 -4.75 C 21.117188 -4.75 21.332031 -4.679688 21.4375 -4.546875 C 21.539062 -4.410156 21.59375 -4.195312 21.59375 -3.90625 L 21.59375 -0.734375 C 21.59375 -0.242188 21.335938 0 20.828125 0 L 3.59375 0 C 3.382812 0 3.203125 -0.0546875 3.046875 -0.171875 C 2.898438 -0.285156 2.828125 -0.472656 2.828125 -0.734375 L 2.828125 -25.03125 C 2.828125 -25.582031 3.082031 -25.859375 3.59375 -25.859375 L 20.375 -25.859375 C 20.675781 -25.859375 20.890625 -25.773438 21.015625 -25.609375 C 21.140625 -25.441406 21.203125 -25.226562 21.203125 -24.96875 L 21.203125 -21.90625 C 21.203125 -21.695312 21.128906 -21.507812 20.984375 -21.34375 C 20.847656 -21.1875 20.632812 -21.109375 20.34375 -21.109375 L 7.953125 -21.109375 L 7.953125 -18.84375 L 17.5 -18.84375 C 17.726562 -18.863281 17.910156 -18.8125 18.046875 -18.6875 C 18.191406 -18.570312 18.265625 -18.367188 18.265625 -18.078125 L 18.265625 -14.921875 C 18.265625 -14.710938 18.207031 -14.523438 18.09375 -14.359375 C 17.976562 -14.203125 17.789062 -14.125 17.53125 -14.125 Z M 7.953125 -14.125 "/></g></g></g><g fill="#ffffff" fill-opacity="1"><g transform="translate(267.303124, 333.799263)"><g><path d="M 25.140625 -12.890625 C 25.140625 -11.429688 24.921875 -10.054688 24.484375 -8.765625 C 24.046875 -7.472656 23.425781 -6.289062 22.625 -5.21875 C 21.820312 -4.15625 20.867188 -3.226562 19.765625 -2.4375 C 18.671875 -1.65625 17.460938 -1.050781 16.140625 -0.625 C 14.828125 -0.207031 13.445312 0 12 0 L 3.546875 0 C 3.367188 0 3.207031 -0.0351562 3.0625 -0.109375 C 2.925781 -0.179688 2.859375 -0.351562 2.859375 -0.625 L 2.859375 -25.125 C 2.859375 -25.613281 3.085938 -25.859375 3.546875 -25.859375 L 12 -25.859375 C 13.46875 -25.859375 14.863281 -25.644531 16.1875 -25.21875 C 17.519531 -24.789062 18.726562 -24.179688 19.8125 -23.390625 C 20.90625 -22.609375 21.847656 -21.675781 22.640625 -20.59375 C 23.441406 -19.519531 24.054688 -18.328125 24.484375 -17.015625 C 24.921875 -15.710938 25.140625 -14.335938 25.140625 -12.890625 Z M 11.828125 -21.25 L 7.71875 -21.25 L 7.71875 -4.59375 L 9.40625 -4.59375 C 9.863281 -4.59375 10.316406 -4.59375 10.765625 -4.59375 C 11.222656 -4.601562 11.675781 -4.613281 12.125 -4.625 C 13.289062 -4.664062 14.367188 -4.90625 15.359375 -5.34375 C 16.359375 -5.789062 17.222656 -6.390625 17.953125 -7.140625 C 18.691406 -7.890625 19.269531 -8.765625 19.6875 -9.765625 C 20.101562 -10.765625 20.3125 -11.847656 20.3125 -13.015625 C 20.3125 -14.234375 20.085938 -15.34375 19.640625 -16.34375 C 19.203125 -17.351562 18.59375 -18.222656 17.8125 -18.953125 C 17.03125 -19.691406 16.128906 -20.257812 15.109375 -20.65625 C 14.085938 -21.050781 12.992188 -21.25 11.828125 -21.25 Z M 11.828125 -21.25 "/></g></g></g></svg>